<svg xmlns="http://www.w3.org/2000/svg" width="19" height="16" viewBox="0 0 19 16">
  <g id="filter_1_" data-name="filter (1)" transform="translate(-3 -5)">
    <path id="Path_1044" data-name="Path 1044" d="M21.269,6.44H11.038A1.452,1.452,0,0,0,9.577,5H8.115A1.452,1.452,0,0,0,6.654,6.44H3.731a.72.72,0,1,0,0,1.44H6.654A1.452,1.452,0,0,0,8.115,9.32H9.577a1.452,1.452,0,0,0,1.462-1.44H21.269a.72.72,0,1,0,0-1.44ZM8.115,7.88V6.44H9.577v.717s0,0,0,0,0,0,0,0V7.88Z" transform="translate(0 0)" fill="rgba(0,0,0,0.6)"/>
    <path id="Path_1045" data-name="Path 1045" d="M21.269,14.44H16.885A1.452,1.452,0,0,0,15.423,13H13.962A1.452,1.452,0,0,0,12.5,14.44H3.731a.72.72,0,1,0,0,1.44H12.5a1.452,1.452,0,0,0,1.462,1.44h1.462a1.452,1.452,0,0,0,1.462-1.44h4.385a.72.72,0,1,0,0-1.44Zm-7.308,1.44V14.44h1.462v.717s0,0,0,0,0,0,0,0v.717Z" transform="translate(0 -2.16)" fill="rgba(0,0,0,0.6)"/>
    <path id="Path_1046" data-name="Path 1046" d="M21.269,22.44H11.038A1.452,1.452,0,0,0,9.577,21H8.115a1.452,1.452,0,0,0-1.462,1.44H3.731a.72.72,0,1,0,0,1.44H6.654a1.452,1.452,0,0,0,1.462,1.44H9.577a1.452,1.452,0,0,0,1.462-1.44H21.269a.72.72,0,1,0,0-1.44ZM8.115,23.88V22.44H9.577v.717s0,0,0,0,0,0,0,0v.717Z" transform="translate(0 -4.32)" fill="rgba(0,0,0,0.6)"/>
  </g>
</svg>
