<svg xmlns="http://www.w3.org/2000/svg" width="16" height="16" viewBox="0 0 16 16">
  <g id="sort" transform="translate(0.001 0)">
    <path id="Path_1047" data-name="Path 1047" d="M226.312,16a.61.61,0,0,1-.593-.625V5.5h-2.552a1.154,1.154,0,0,1-1.067-.751,1.268,1.268,0,0,1,.248-1.333l2.7-2.864a1.716,1.716,0,0,1,2.522,0l2.7,2.864a1.268,1.268,0,0,1,.248,1.333,1.155,1.155,0,0,1-1.067.751H228.8a.626.626,0,0,1,0-1.25h.585l-2.658-2.816a.57.57,0,0,0-.839,0L223.234,4.25h2.484a1.221,1.221,0,0,1,1.187,1.25v9.876A.61.61,0,0,1,226.312,16Zm0,0" transform="translate(-214.615 0)" fill="rgba(0,0,0,0.6)"/>
    <path id="Path_1048" data-name="Path 1048" d="M4.3,16a1.722,1.722,0,0,1-1.261-.552l-2.7-2.864a1.268,1.268,0,0,1-.248-1.333A1.154,1.154,0,0,1,1.156,10.5H3.708V.625a.594.594,0,1,1,1.187,0V10.5a1.221,1.221,0,0,1-1.187,1.25H1.224l2.658,2.816a.57.57,0,0,0,.839,0L7.379,11.75H6.794a.626.626,0,0,1,0-1.25h.652a1.154,1.154,0,0,1,1.067.751,1.268,1.268,0,0,1-.248,1.333l-2.7,2.864A1.722,1.722,0,0,1,4.3,16Zm0,0" transform="translate(0 0)" fill="rgba(0,0,0,0.6)"/>
  </g>
</svg>
